<mxfile host="Electron" modified="2024-08-27T15:48:56.996Z" agent="Mozilla/5.0 (Macintosh; Intel Mac OS X 10_15_7) AppleWebKit/537.36 (KHTML, like Gecko) draw.io/24.6.4 Chrome/124.0.6367.207 Electron/30.0.6 Safari/537.36" etag="IzFWf3i3h3-sftBnX9Xk" version="24.6.4" type="device" pages="6">
  <diagram name="Page-1" id="pN_dS-j7d-_ecYbiyAnN">
    <mxGraphModel dx="1026" dy="658" grid="1" gridSize="10" guides="1" tooltips="1" connect="1" arrows="1" fold="1" page="1" pageScale="1" pageWidth="827" pageHeight="1169" math="0" shadow="0">
      <root>
        <mxCell id="0" />
        <mxCell id="1" parent="0" />
        <mxCell id="H5QdcC-AQU7h3nXGN7yU-8" value="" style="rounded=1;whiteSpace=wrap;html=1;" parent="1" vertex="1">
          <mxGeometry x="140" y="4.6" width="160" height="250" as="geometry" />
        </mxCell>
        <mxCell id="H5QdcC-AQU7h3nXGN7yU-1" value="Data" style="rounded=1;whiteSpace=wrap;html=1;fillColor=#dae8fc;strokeColor=#6c8ebf;" parent="1" vertex="1">
          <mxGeometry x="190" y="20" width="60" height="40" as="geometry" />
        </mxCell>
        <mxCell id="H5QdcC-AQU7h3nXGN7yU-3" value="Encrypted&lt;div&gt;Data&lt;/div&gt;" style="rounded=1;whiteSpace=wrap;html=1;" parent="1" vertex="1">
          <mxGeometry x="160" y="180" width="120" height="60" as="geometry" />
        </mxCell>
        <mxCell id="H5QdcC-AQU7h3nXGN7yU-6" value="" style="html=1;verticalLabelPosition=bottom;align=center;labelBackgroundColor=#ffffff;verticalAlign=top;strokeWidth=2;strokeColor=#0080F0;shadow=0;dashed=0;shape=mxgraph.ios7.icons.locked;" parent="1" vertex="1">
          <mxGeometry x="163.03" y="195" width="24" height="30" as="geometry" />
        </mxCell>
        <mxCell id="H5QdcC-AQU7h3nXGN7yU-9" value="" style="rounded=1;whiteSpace=wrap;html=1;" parent="1" vertex="1">
          <mxGeometry x="377.03" y="4.599999999999994" width="160" height="250" as="geometry" />
        </mxCell>
        <mxCell id="H5QdcC-AQU7h3nXGN7yU-10" value="Data" style="rounded=1;whiteSpace=wrap;html=1;fillColor=#dae8fc;strokeColor=#6c8ebf;" parent="1" vertex="1">
          <mxGeometry x="427.03" y="20" width="60" height="40" as="geometry" />
        </mxCell>
        <mxCell id="H5QdcC-AQU7h3nXGN7yU-13" value="Encrypted&lt;div&gt;Data&lt;/div&gt;" style="rounded=1;whiteSpace=wrap;html=1;" parent="1" vertex="1">
          <mxGeometry x="397.03" y="180" width="120" height="60" as="geometry" />
        </mxCell>
        <mxCell id="H5QdcC-AQU7h3nXGN7yU-15" value="" style="html=1;verticalLabelPosition=bottom;align=center;labelBackgroundColor=#ffffff;verticalAlign=top;strokeWidth=2;strokeColor=#0080F0;shadow=0;dashed=0;shape=mxgraph.ios7.icons.locked;" parent="1" vertex="1">
          <mxGeometry x="403.03" y="195" width="24" height="30" as="geometry" />
        </mxCell>
        <mxCell id="H5QdcC-AQU7h3nXGN7yU-17" value="" style="endArrow=classic;html=1;rounded=0;exitX=1;exitY=0.5;exitDx=0;exitDy=0;entryX=0;entryY=0.5;entryDx=0;entryDy=0;" parent="1" source="H5QdcC-AQU7h3nXGN7yU-3" target="H5QdcC-AQU7h3nXGN7yU-13" edge="1">
          <mxGeometry width="50" height="50" relative="1" as="geometry">
            <mxPoint x="330" y="180" as="sourcePoint" />
            <mxPoint x="380" y="130" as="targetPoint" />
          </mxGeometry>
        </mxCell>
        <mxCell id="H5QdcC-AQU7h3nXGN7yU-22" value="" style="edgeStyle=orthogonalEdgeStyle;rounded=0;orthogonalLoop=1;jettySize=auto;html=1;" parent="1" source="H5QdcC-AQU7h3nXGN7yU-18" edge="1">
          <mxGeometry relative="1" as="geometry">
            <mxPoint x="220" y="180" as="targetPoint" />
          </mxGeometry>
        </mxCell>
        <mxCell id="H5QdcC-AQU7h3nXGN7yU-18" value="Encryption" style="triangle;whiteSpace=wrap;html=1;direction=south;verticalAlign=top;fillColor=#d5e8d4;strokeColor=#82b366;" parent="1" vertex="1">
          <mxGeometry x="177.5" y="99.6" width="85" height="60" as="geometry" />
        </mxCell>
        <mxCell id="H5QdcC-AQU7h3nXGN7yU-19" value="" style="endArrow=classic;html=1;rounded=0;exitX=0.5;exitY=1;exitDx=0;exitDy=0;entryX=0;entryY=0.5;entryDx=0;entryDy=0;" parent="1" source="H5QdcC-AQU7h3nXGN7yU-1" target="H5QdcC-AQU7h3nXGN7yU-18" edge="1">
          <mxGeometry width="50" height="50" relative="1" as="geometry">
            <mxPoint x="340" y="180" as="sourcePoint" />
            <mxPoint x="390" y="130" as="targetPoint" />
          </mxGeometry>
        </mxCell>
        <mxCell id="H5QdcC-AQU7h3nXGN7yU-32" value="" style="edgeStyle=orthogonalEdgeStyle;rounded=0;orthogonalLoop=1;jettySize=auto;html=1;" parent="1" source="H5QdcC-AQU7h3nXGN7yU-24" target="H5QdcC-AQU7h3nXGN7yU-10" edge="1">
          <mxGeometry relative="1" as="geometry" />
        </mxCell>
        <mxCell id="H5QdcC-AQU7h3nXGN7yU-24" value="Decryption" style="triangle;whiteSpace=wrap;html=1;direction=north;verticalAlign=bottom;fillColor=#d5e8d4;strokeColor=#82b366;" parent="1" vertex="1">
          <mxGeometry x="414.53" y="80" width="85" height="60" as="geometry" />
        </mxCell>
        <mxCell id="H5QdcC-AQU7h3nXGN7yU-27" value="" style="group" parent="1" vertex="1" connectable="0">
          <mxGeometry x="320" y="99.6" width="40" height="60" as="geometry" />
        </mxCell>
        <mxCell id="H5QdcC-AQU7h3nXGN7yU-25" value="" style="rounded=1;whiteSpace=wrap;html=1;" parent="H5QdcC-AQU7h3nXGN7yU-27" vertex="1">
          <mxGeometry width="40" height="60" as="geometry" />
        </mxCell>
        <mxCell id="H5QdcC-AQU7h3nXGN7yU-5" value="" style="image;aspect=fixed;perimeter=ellipsePerimeter;html=1;align=center;shadow=0;dashed=0;spacingTop=3;image=img/lib/active_directory/key.svg;" parent="H5QdcC-AQU7h3nXGN7yU-27" vertex="1">
          <mxGeometry x="6.759999999999991" y="30.19999999999999" width="26.49" height="19.6" as="geometry" />
        </mxCell>
        <mxCell id="H5QdcC-AQU7h3nXGN7yU-7" value="Key" style="text;html=1;align=center;verticalAlign=middle;whiteSpace=wrap;rounded=0;" parent="H5QdcC-AQU7h3nXGN7yU-27" vertex="1">
          <mxGeometry x="5" y="10.200000000000017" width="30" height="20" as="geometry" />
        </mxCell>
        <mxCell id="H5QdcC-AQU7h3nXGN7yU-28" value="" style="endArrow=classic;html=1;rounded=0;exitX=0.5;exitY=0;exitDx=0;exitDy=0;entryX=-0.008;entryY=0.264;entryDx=0;entryDy=0;entryPerimeter=0;" parent="1" source="H5QdcC-AQU7h3nXGN7yU-25" target="H5QdcC-AQU7h3nXGN7yU-18" edge="1">
          <mxGeometry width="50" height="50" relative="1" as="geometry">
            <mxPoint x="340" y="180" as="sourcePoint" />
            <mxPoint x="390" y="130" as="targetPoint" />
            <Array as="points">
              <mxPoint x="340" y="80" />
              <mxPoint x="240" y="80" />
            </Array>
          </mxGeometry>
        </mxCell>
        <mxCell id="H5QdcC-AQU7h3nXGN7yU-29" value="" style="endArrow=classic;html=1;rounded=0;entryX=-0.003;entryY=0.296;entryDx=0;entryDy=0;entryPerimeter=0;" parent="1" target="H5QdcC-AQU7h3nXGN7yU-24" edge="1">
          <mxGeometry width="50" height="50" relative="1" as="geometry">
            <mxPoint x="340" y="160" as="sourcePoint" />
            <mxPoint x="390" y="130" as="targetPoint" />
            <Array as="points">
              <mxPoint x="340" y="170" />
              <mxPoint x="440" y="170" />
            </Array>
          </mxGeometry>
        </mxCell>
        <mxCell id="H5QdcC-AQU7h3nXGN7yU-30" value="" style="endArrow=classic;html=1;rounded=0;exitX=0.5;exitY=0;exitDx=0;exitDy=0;entryX=0;entryY=0.5;entryDx=0;entryDy=0;" parent="1" source="H5QdcC-AQU7h3nXGN7yU-13" target="H5QdcC-AQU7h3nXGN7yU-24" edge="1">
          <mxGeometry width="50" height="50" relative="1" as="geometry">
            <mxPoint x="340" y="180" as="sourcePoint" />
            <mxPoint x="390" y="130" as="targetPoint" />
          </mxGeometry>
        </mxCell>
      </root>
    </mxGraphModel>
  </diagram>
  <diagram id="cjYC_S9nVokK7UF62DGD" name="Page-2">
    <mxGraphModel dx="395" dy="253" grid="1" gridSize="10" guides="1" tooltips="1" connect="1" arrows="1" fold="1" page="1" pageScale="1" pageWidth="827" pageHeight="1169" math="0" shadow="0">
      <root>
        <mxCell id="0" />
        <mxCell id="1" parent="0" />
        <mxCell id="fNEUUUSqnBUzo0kVyfhJ-1" value="Data" style="rounded=1;whiteSpace=wrap;html=1;fillColor=#dae8fc;strokeColor=#6c8ebf;" vertex="1" parent="1">
          <mxGeometry x="120" y="40" width="60" height="40" as="geometry" />
        </mxCell>
        <mxCell id="fNEUUUSqnBUzo0kVyfhJ-2" value="" style="endArrow=classic;html=1;rounded=0;exitX=1;exitY=0.5;exitDx=0;exitDy=0;entryX=0;entryY=0.5;entryDx=0;entryDy=0;" edge="1" parent="1" source="fNEUUUSqnBUzo0kVyfhJ-1" target="fNEUUUSqnBUzo0kVyfhJ-7">
          <mxGeometry width="50" height="50" relative="1" as="geometry">
            <mxPoint x="190" y="140" as="sourcePoint" />
            <mxPoint x="320" y="60" as="targetPoint" />
          </mxGeometry>
        </mxCell>
        <mxCell id="fNEUUUSqnBUzo0kVyfhJ-4" value="Hash Algorithm" style="edgeLabel;html=1;align=center;verticalAlign=middle;resizable=0;points=[];" vertex="1" connectable="0" parent="fNEUUUSqnBUzo0kVyfhJ-2">
          <mxGeometry x="-0.033" y="-1" relative="1" as="geometry">
            <mxPoint y="-11" as="offset" />
          </mxGeometry>
        </mxCell>
        <mxCell id="fNEUUUSqnBUzo0kVyfhJ-7" value="Hash" style="rounded=1;whiteSpace=wrap;html=1;fillColor=#dae8fc;strokeColor=#6c8ebf;" vertex="1" parent="1">
          <mxGeometry x="280" y="40" width="60" height="40" as="geometry" />
        </mxCell>
        <mxCell id="fNEUUUSqnBUzo0kVyfhJ-8" value="Variable&lt;div&gt;length&lt;/div&gt;" style="text;html=1;align=center;verticalAlign=middle;whiteSpace=wrap;rounded=0;" vertex="1" parent="1">
          <mxGeometry x="120" y="80" width="60" height="30" as="geometry" />
        </mxCell>
        <mxCell id="fNEUUUSqnBUzo0kVyfhJ-9" value="Fixed length" style="text;html=1;align=center;verticalAlign=middle;whiteSpace=wrap;rounded=0;" vertex="1" parent="1">
          <mxGeometry x="280" y="80" width="60" height="30" as="geometry" />
        </mxCell>
      </root>
    </mxGraphModel>
  </diagram>
  <diagram id="Z9QRyWXs4eZ00poKpc-M" name="Page-3">
    <mxGraphModel dx="622" dy="399" grid="1" gridSize="10" guides="1" tooltips="1" connect="1" arrows="1" fold="1" page="1" pageScale="1" pageWidth="827" pageHeight="1169" math="0" shadow="0">
      <root>
        <mxCell id="0" />
        <mxCell id="1" parent="0" />
        <mxCell id="RuPtkZs9HGin5jaBshxn-33" value="" style="rounded=1;whiteSpace=wrap;html=1;" vertex="1" parent="1">
          <mxGeometry x="255" y="30" width="170" height="190" as="geometry" />
        </mxCell>
        <mxCell id="RuPtkZs9HGin5jaBshxn-29" value="" style="group" vertex="1" connectable="0" parent="1">
          <mxGeometry x="270" y="150" width="140" height="60" as="geometry" />
        </mxCell>
        <mxCell id="RuPtkZs9HGin5jaBshxn-30" value="" style="rounded=1;whiteSpace=wrap;html=1;" vertex="1" parent="RuPtkZs9HGin5jaBshxn-29">
          <mxGeometry width="140" height="60" as="geometry" />
        </mxCell>
        <mxCell id="RuPtkZs9HGin5jaBshxn-31" value="Hash" style="rounded=1;whiteSpace=wrap;html=1;fillColor=#f5f5f5;fontColor=#333333;strokeColor=#666666;" vertex="1" parent="RuPtkZs9HGin5jaBshxn-29">
          <mxGeometry x="90" y="10" width="40" height="40" as="geometry" />
        </mxCell>
        <mxCell id="RuPtkZs9HGin5jaBshxn-32" value="Data" style="rounded=1;whiteSpace=wrap;html=1;fillColor=#dae8fc;strokeColor=#6c8ebf;" vertex="1" parent="RuPtkZs9HGin5jaBshxn-29">
          <mxGeometry x="10" y="10" width="80" height="40" as="geometry" />
        </mxCell>
        <mxCell id="RuPtkZs9HGin5jaBshxn-22" value="" style="rounded=1;whiteSpace=wrap;html=1;" vertex="1" parent="1">
          <mxGeometry x="60" y="30" width="170" height="190" as="geometry" />
        </mxCell>
        <mxCell id="RuPtkZs9HGin5jaBshxn-1" value="Data" style="rounded=1;whiteSpace=wrap;html=1;fillColor=#dae8fc;strokeColor=#6c8ebf;" vertex="1" parent="1">
          <mxGeometry x="120" y="40" width="80" height="40" as="geometry" />
        </mxCell>
        <mxCell id="RuPtkZs9HGin5jaBshxn-5" value="" style="points=[[0,0.5,0],[0.24,0,0],[0.5,0.28,0],[0.995,0.475,0],[0.5,0.72,0],[0.24,1,0]];verticalLabelPosition=bottom;sketch=0;html=1;verticalAlign=top;aspect=fixed;align=center;pointerEvents=1;shape=mxgraph.cisco19.key;fillColor=#005073;strokeColor=none;" vertex="1" parent="1">
          <mxGeometry x="90" y="80" width="44.44" height="20" as="geometry" />
        </mxCell>
        <mxCell id="RuPtkZs9HGin5jaBshxn-6" value="" style="endArrow=classic;html=1;rounded=0;exitX=0.75;exitY=1;exitDx=0;exitDy=0;entryX=0.5;entryY=0;entryDx=0;entryDy=0;" edge="1" parent="1" source="RuPtkZs9HGin5jaBshxn-1" target="RuPtkZs9HGin5jaBshxn-2">
          <mxGeometry width="50" height="50" relative="1" as="geometry">
            <mxPoint x="180" y="150" as="sourcePoint" />
            <mxPoint x="230" y="100" as="targetPoint" />
          </mxGeometry>
        </mxCell>
        <mxCell id="RuPtkZs9HGin5jaBshxn-7" value="Hash Algorithm" style="edgeLabel;html=1;align=center;verticalAlign=middle;resizable=0;points=[];" vertex="1" connectable="0" parent="RuPtkZs9HGin5jaBshxn-6">
          <mxGeometry x="-0.0808" relative="1" as="geometry">
            <mxPoint y="12" as="offset" />
          </mxGeometry>
        </mxCell>
        <mxCell id="RuPtkZs9HGin5jaBshxn-8" value="" style="endArrow=classic;html=1;rounded=0;exitX=0.5;exitY=0.72;exitDx=0;exitDy=0;exitPerimeter=0;" edge="1" parent="1" source="RuPtkZs9HGin5jaBshxn-5">
          <mxGeometry width="50" height="50" relative="1" as="geometry">
            <mxPoint x="140" y="90" as="sourcePoint" />
            <mxPoint x="150" y="120" as="targetPoint" />
          </mxGeometry>
        </mxCell>
        <mxCell id="RuPtkZs9HGin5jaBshxn-9" value="Hash" style="rounded=1;whiteSpace=wrap;html=1;fillColor=#f5f5f5;fontColor=#333333;strokeColor=#666666;" vertex="1" parent="1">
          <mxGeometry x="300" y="40" width="40" height="40" as="geometry" />
        </mxCell>
        <mxCell id="RuPtkZs9HGin5jaBshxn-17" style="edgeStyle=orthogonalEdgeStyle;rounded=0;orthogonalLoop=1;jettySize=auto;html=1;entryX=0.5;entryY=1;entryDx=0;entryDy=0;exitX=0.5;exitY=0;exitDx=0;exitDy=0;" edge="1" parent="1" source="RuPtkZs9HGin5jaBshxn-32" target="RuPtkZs9HGin5jaBshxn-9">
          <mxGeometry relative="1" as="geometry">
            <mxPoint x="320" y="160" as="sourcePoint" />
          </mxGeometry>
        </mxCell>
        <mxCell id="RuPtkZs9HGin5jaBshxn-19" value="Hash Algorithm" style="edgeLabel;html=1;align=center;verticalAlign=middle;resizable=0;points=[];" vertex="1" connectable="0" parent="RuPtkZs9HGin5jaBshxn-17">
          <mxGeometry x="-0.3442" y="-1" relative="1" as="geometry">
            <mxPoint as="offset" />
          </mxGeometry>
        </mxCell>
        <mxCell id="RuPtkZs9HGin5jaBshxn-12" value="" style="points=[[0,0.5,0],[0.24,0,0],[0.5,0.28,0],[0.995,0.475,0],[0.5,0.72,0],[0.24,1,0]];verticalLabelPosition=bottom;sketch=0;html=1;verticalAlign=top;aspect=fixed;align=center;pointerEvents=1;shape=mxgraph.cisco19.key;fillColor=#005073;strokeColor=none;" vertex="1" parent="1">
          <mxGeometry x="330" y="90" width="44.44" height="20" as="geometry" />
        </mxCell>
        <mxCell id="RuPtkZs9HGin5jaBshxn-15" value="" style="endArrow=classic;html=1;rounded=0;exitX=0.5;exitY=0.72;exitDx=0;exitDy=0;exitPerimeter=0;" edge="1" parent="1" source="RuPtkZs9HGin5jaBshxn-12">
          <mxGeometry width="50" height="50" relative="1" as="geometry">
            <mxPoint x="340" y="90" as="sourcePoint" />
            <mxPoint x="340" y="130" as="targetPoint" />
          </mxGeometry>
        </mxCell>
        <mxCell id="RuPtkZs9HGin5jaBshxn-20" value="" style="endArrow=classic;startArrow=classic;html=1;rounded=0;entryX=1;entryY=0.5;entryDx=0;entryDy=0;exitX=0.5;exitY=0;exitDx=0;exitDy=0;" edge="1" parent="1" source="RuPtkZs9HGin5jaBshxn-31" target="RuPtkZs9HGin5jaBshxn-9">
          <mxGeometry width="50" height="50" relative="1" as="geometry">
            <mxPoint x="390" y="140" as="sourcePoint" />
            <mxPoint x="310" y="100" as="targetPoint" />
            <Array as="points">
              <mxPoint x="380" y="60" />
            </Array>
          </mxGeometry>
        </mxCell>
        <mxCell id="RuPtkZs9HGin5jaBshxn-21" value="Compare" style="edgeLabel;html=1;align=center;verticalAlign=middle;resizable=0;points=[];" vertex="1" connectable="0" parent="RuPtkZs9HGin5jaBshxn-20">
          <mxGeometry x="0.1952" y="-1" relative="1" as="geometry">
            <mxPoint as="offset" />
          </mxGeometry>
        </mxCell>
        <mxCell id="RuPtkZs9HGin5jaBshxn-25" value="" style="group" vertex="1" connectable="0" parent="1">
          <mxGeometry x="70" y="150" width="140" height="60" as="geometry" />
        </mxCell>
        <mxCell id="RuPtkZs9HGin5jaBshxn-27" value="" style="group" vertex="1" connectable="0" parent="RuPtkZs9HGin5jaBshxn-25">
          <mxGeometry width="140" height="60" as="geometry" />
        </mxCell>
        <mxCell id="RuPtkZs9HGin5jaBshxn-24" value="" style="rounded=1;whiteSpace=wrap;html=1;" vertex="1" parent="RuPtkZs9HGin5jaBshxn-27">
          <mxGeometry width="140" height="60" as="geometry" />
        </mxCell>
        <mxCell id="RuPtkZs9HGin5jaBshxn-2" value="Hash" style="rounded=1;whiteSpace=wrap;html=1;fillColor=#f5f5f5;fontColor=#333333;strokeColor=#666666;" vertex="1" parent="RuPtkZs9HGin5jaBshxn-27">
          <mxGeometry x="90" y="10" width="40" height="40" as="geometry" />
        </mxCell>
        <mxCell id="RuPtkZs9HGin5jaBshxn-4" value="Data" style="rounded=1;whiteSpace=wrap;html=1;fillColor=#dae8fc;strokeColor=#6c8ebf;" vertex="1" parent="RuPtkZs9HGin5jaBshxn-27">
          <mxGeometry x="10" y="10" width="80" height="40" as="geometry" />
        </mxCell>
        <mxCell id="RuPtkZs9HGin5jaBshxn-34" value="" style="endArrow=classic;html=1;rounded=0;exitX=1;exitY=0.5;exitDx=0;exitDy=0;entryX=0;entryY=0.5;entryDx=0;entryDy=0;" edge="1" parent="1" source="RuPtkZs9HGin5jaBshxn-24" target="RuPtkZs9HGin5jaBshxn-30">
          <mxGeometry width="50" height="50" relative="1" as="geometry">
            <mxPoint x="260" y="200" as="sourcePoint" />
            <mxPoint x="310" y="150" as="targetPoint" />
          </mxGeometry>
        </mxCell>
      </root>
    </mxGraphModel>
  </diagram>
  <diagram id="R4z1TvxpQxmMg8Se16_w" name="Page-4">
    <mxGraphModel dx="604" dy="387" grid="1" gridSize="10" guides="1" tooltips="1" connect="1" arrows="1" fold="1" page="1" pageScale="1" pageWidth="827" pageHeight="1169" math="0" shadow="0">
      <root>
        <mxCell id="0" />
        <mxCell id="1" parent="0" />
        <mxCell id="5Mx2uhxJUg8AcoXVhzMB-5" value="" style="rounded=1;whiteSpace=wrap;html=1;" vertex="1" parent="1">
          <mxGeometry x="70" y="36.25" width="150" height="73.75" as="geometry" />
        </mxCell>
        <mxCell id="5Mx2uhxJUg8AcoXVhzMB-1" value="" style="points=[[0,0.5,0],[0.24,0,0],[0.5,0.28,0],[0.995,0.475,0],[0.5,0.72,0],[0.24,1,0]];verticalLabelPosition=bottom;sketch=0;html=1;verticalAlign=top;aspect=fixed;align=center;pointerEvents=1;shape=mxgraph.cisco19.key;fillColor=#e51400;strokeColor=#B20000;fontColor=#ffffff;" vertex="1" parent="1">
          <mxGeometry x="80" y="40" width="50" height="22.5" as="geometry" />
        </mxCell>
        <mxCell id="5Mx2uhxJUg8AcoXVhzMB-2" value="" style="points=[[0,0.5,0],[0.24,0,0],[0.5,0.28,0],[0.995,0.475,0],[0.5,0.72,0],[0.24,1,0]];verticalLabelPosition=bottom;sketch=0;html=1;verticalAlign=top;aspect=fixed;align=center;pointerEvents=1;shape=mxgraph.cisco19.key;fillColor=#008a00;strokeColor=#005700;fontColor=#ffffff;" vertex="1" parent="1">
          <mxGeometry x="80" y="80" width="50" height="22.5" as="geometry" />
        </mxCell>
        <mxCell id="5Mx2uhxJUg8AcoXVhzMB-3" value="Private Key" style="text;html=1;align=center;verticalAlign=middle;whiteSpace=wrap;rounded=0;fontColor=#FF0000;" vertex="1" parent="1">
          <mxGeometry x="140" y="36.25" width="80" height="30" as="geometry" />
        </mxCell>
        <mxCell id="5Mx2uhxJUg8AcoXVhzMB-4" value="Public Key" style="text;html=1;align=center;verticalAlign=middle;whiteSpace=wrap;rounded=0;fontColor=#008a00;" vertex="1" parent="1">
          <mxGeometry x="140" y="76.25" width="80" height="30" as="geometry" />
        </mxCell>
      </root>
    </mxGraphModel>
  </diagram>
  <diagram id="9Ntsmmh79jf6QjxYR2zh" name="Page-5">
    <mxGraphModel dx="1283" dy="823" grid="1" gridSize="10" guides="1" tooltips="1" connect="1" arrows="1" fold="1" page="1" pageScale="1" pageWidth="827" pageHeight="1169" math="0" shadow="0">
      <root>
        <mxCell id="0" />
        <mxCell id="1" parent="0" />
        <mxCell id="I2QJD84xTv0Rr7P3eNoM-26" value="" style="rounded=1;whiteSpace=wrap;html=1;" vertex="1" parent="1">
          <mxGeometry x="30" y="150" width="420" height="270" as="geometry" />
        </mxCell>
        <mxCell id="GQeRHlJiABCkQv-f8m28-1" value="" style="rounded=1;whiteSpace=wrap;html=1;" vertex="1" parent="1">
          <mxGeometry x="165" y="70" width="150" height="73.75" as="geometry" />
        </mxCell>
        <mxCell id="GQeRHlJiABCkQv-f8m28-2" value="" style="points=[[0,0.5,0],[0.24,0,0],[0.5,0.28,0],[0.995,0.475,0],[0.5,0.72,0],[0.24,1,0]];verticalLabelPosition=bottom;sketch=0;html=1;verticalAlign=top;aspect=fixed;align=center;pointerEvents=1;shape=mxgraph.cisco19.key;fillColor=#e51400;strokeColor=#B20000;fontColor=#ffffff;" vertex="1" parent="1">
          <mxGeometry x="175" y="73.75" width="50" height="22.5" as="geometry" />
        </mxCell>
        <mxCell id="GQeRHlJiABCkQv-f8m28-3" value="" style="points=[[0,0.5,0],[0.24,0,0],[0.5,0.28,0],[0.995,0.475,0],[0.5,0.72,0],[0.24,1,0]];verticalLabelPosition=bottom;sketch=0;html=1;verticalAlign=top;aspect=fixed;align=center;pointerEvents=1;shape=mxgraph.cisco19.key;fillColor=#008a00;strokeColor=#005700;fontColor=#ffffff;" vertex="1" parent="1">
          <mxGeometry x="175" y="113.75" width="50" height="22.5" as="geometry" />
        </mxCell>
        <mxCell id="GQeRHlJiABCkQv-f8m28-4" value="Private Key" style="text;html=1;align=center;verticalAlign=middle;whiteSpace=wrap;rounded=0;fontColor=#FF0000;" vertex="1" parent="1">
          <mxGeometry x="235" y="70" width="80" height="30" as="geometry" />
        </mxCell>
        <mxCell id="GQeRHlJiABCkQv-f8m28-5" value="Public Key" style="text;html=1;align=center;verticalAlign=middle;whiteSpace=wrap;rounded=0;fontColor=#008a00;" vertex="1" parent="1">
          <mxGeometry x="235" y="110" width="80" height="30" as="geometry" />
        </mxCell>
        <mxCell id="I2QJD84xTv0Rr7P3eNoM-1" value="" style="rounded=1;whiteSpace=wrap;html=1;" vertex="1" parent="1">
          <mxGeometry x="40" y="160" width="160" height="250" as="geometry" />
        </mxCell>
        <mxCell id="I2QJD84xTv0Rr7P3eNoM-2" value="Data" style="rounded=1;whiteSpace=wrap;html=1;fillColor=#dae8fc;strokeColor=#6c8ebf;" vertex="1" parent="1">
          <mxGeometry x="90" y="175.4" width="60" height="40" as="geometry" />
        </mxCell>
        <mxCell id="I2QJD84xTv0Rr7P3eNoM-3" value="Encrypted&lt;div&gt;Data&lt;/div&gt;" style="rounded=1;whiteSpace=wrap;html=1;" vertex="1" parent="1">
          <mxGeometry x="60" y="335.4" width="120" height="60" as="geometry" />
        </mxCell>
        <mxCell id="I2QJD84xTv0Rr7P3eNoM-4" value="" style="html=1;verticalLabelPosition=bottom;align=center;labelBackgroundColor=#ffffff;verticalAlign=top;strokeWidth=2;strokeColor=#0080F0;shadow=0;dashed=0;shape=mxgraph.ios7.icons.locked;" vertex="1" parent="1">
          <mxGeometry x="63.03" y="350.4" width="24" height="30" as="geometry" />
        </mxCell>
        <mxCell id="I2QJD84xTv0Rr7P3eNoM-5" value="" style="rounded=1;whiteSpace=wrap;html=1;" vertex="1" parent="1">
          <mxGeometry x="277.03" y="160" width="160" height="250" as="geometry" />
        </mxCell>
        <mxCell id="I2QJD84xTv0Rr7P3eNoM-6" value="Data" style="rounded=1;whiteSpace=wrap;html=1;fillColor=#dae8fc;strokeColor=#6c8ebf;" vertex="1" parent="1">
          <mxGeometry x="327.03" y="175.4" width="60" height="40" as="geometry" />
        </mxCell>
        <mxCell id="I2QJD84xTv0Rr7P3eNoM-7" value="Encrypted&lt;div&gt;Data&lt;/div&gt;" style="rounded=1;whiteSpace=wrap;html=1;" vertex="1" parent="1">
          <mxGeometry x="297.03" y="335.4" width="120" height="60" as="geometry" />
        </mxCell>
        <mxCell id="I2QJD84xTv0Rr7P3eNoM-8" value="" style="html=1;verticalLabelPosition=bottom;align=center;labelBackgroundColor=#ffffff;verticalAlign=top;strokeWidth=2;strokeColor=#0080F0;shadow=0;dashed=0;shape=mxgraph.ios7.icons.locked;" vertex="1" parent="1">
          <mxGeometry x="303.03" y="350.4" width="24" height="30" as="geometry" />
        </mxCell>
        <mxCell id="I2QJD84xTv0Rr7P3eNoM-9" value="" style="endArrow=classic;html=1;rounded=0;exitX=1;exitY=0.5;exitDx=0;exitDy=0;entryX=0;entryY=0.5;entryDx=0;entryDy=0;" edge="1" parent="1" source="I2QJD84xTv0Rr7P3eNoM-3" target="I2QJD84xTv0Rr7P3eNoM-7">
          <mxGeometry width="50" height="50" relative="1" as="geometry">
            <mxPoint x="230" y="335.4" as="sourcePoint" />
            <mxPoint x="280" y="285.4" as="targetPoint" />
          </mxGeometry>
        </mxCell>
        <mxCell id="I2QJD84xTv0Rr7P3eNoM-10" value="" style="edgeStyle=orthogonalEdgeStyle;rounded=0;orthogonalLoop=1;jettySize=auto;html=1;" edge="1" parent="1" source="I2QJD84xTv0Rr7P3eNoM-11">
          <mxGeometry relative="1" as="geometry">
            <mxPoint x="120" y="335.4" as="targetPoint" />
          </mxGeometry>
        </mxCell>
        <mxCell id="I2QJD84xTv0Rr7P3eNoM-11" value="Encryption" style="triangle;whiteSpace=wrap;html=1;direction=south;verticalAlign=top;fillColor=#d5e8d4;strokeColor=#82b366;" vertex="1" parent="1">
          <mxGeometry x="77.5" y="255" width="85" height="60" as="geometry" />
        </mxCell>
        <mxCell id="I2QJD84xTv0Rr7P3eNoM-12" value="" style="endArrow=classic;html=1;rounded=0;exitX=0.5;exitY=1;exitDx=0;exitDy=0;entryX=0;entryY=0.5;entryDx=0;entryDy=0;" edge="1" parent="1" source="I2QJD84xTv0Rr7P3eNoM-2" target="I2QJD84xTv0Rr7P3eNoM-11">
          <mxGeometry width="50" height="50" relative="1" as="geometry">
            <mxPoint x="240" y="335.4" as="sourcePoint" />
            <mxPoint x="290" y="285.4" as="targetPoint" />
          </mxGeometry>
        </mxCell>
        <mxCell id="I2QJD84xTv0Rr7P3eNoM-13" value="" style="edgeStyle=orthogonalEdgeStyle;rounded=0;orthogonalLoop=1;jettySize=auto;html=1;" edge="1" parent="1" source="I2QJD84xTv0Rr7P3eNoM-14" target="I2QJD84xTv0Rr7P3eNoM-6">
          <mxGeometry relative="1" as="geometry" />
        </mxCell>
        <mxCell id="I2QJD84xTv0Rr7P3eNoM-14" value="Decryption" style="triangle;whiteSpace=wrap;html=1;direction=north;verticalAlign=bottom;fillColor=#d5e8d4;strokeColor=#82b366;" vertex="1" parent="1">
          <mxGeometry x="314.53" y="235.4" width="85" height="60" as="geometry" />
        </mxCell>
        <mxCell id="I2QJD84xTv0Rr7P3eNoM-21" value="" style="endArrow=classic;html=1;rounded=0;exitX=0.5;exitY=0;exitDx=0;exitDy=0;entryX=0;entryY=0.5;entryDx=0;entryDy=0;" edge="1" parent="1" source="I2QJD84xTv0Rr7P3eNoM-7" target="I2QJD84xTv0Rr7P3eNoM-14">
          <mxGeometry width="50" height="50" relative="1" as="geometry">
            <mxPoint x="240" y="335.4" as="sourcePoint" />
            <mxPoint x="290" y="285.4" as="targetPoint" />
          </mxGeometry>
        </mxCell>
        <mxCell id="I2QJD84xTv0Rr7P3eNoM-22" value="" style="points=[[0,0.5,0],[0.24,0,0],[0.5,0.28,0],[0.995,0.475,0],[0.5,0.72,0],[0.24,1,0]];verticalLabelPosition=bottom;sketch=0;html=1;verticalAlign=top;aspect=fixed;align=center;pointerEvents=1;shape=mxgraph.cisco19.key;fillColor=#e51400;strokeColor=#B20000;fontColor=#ffffff;" vertex="1" parent="1">
          <mxGeometry x="140" y="220" width="50" height="22.5" as="geometry" />
        </mxCell>
        <mxCell id="I2QJD84xTv0Rr7P3eNoM-23" value="" style="endArrow=classic;html=1;rounded=0;exitX=0.24;exitY=1;exitDx=0;exitDy=0;exitPerimeter=0;entryX=-0.001;entryY=0.124;entryDx=0;entryDy=0;entryPerimeter=0;" edge="1" parent="1" source="I2QJD84xTv0Rr7P3eNoM-22" target="I2QJD84xTv0Rr7P3eNoM-11">
          <mxGeometry width="50" height="50" relative="1" as="geometry">
            <mxPoint x="230" y="250" as="sourcePoint" />
            <mxPoint x="280" y="200" as="targetPoint" />
          </mxGeometry>
        </mxCell>
        <mxCell id="I2QJD84xTv0Rr7P3eNoM-24" value="" style="points=[[0,0.5,0],[0.24,0,0],[0.5,0.28,0],[0.995,0.475,0],[0.5,0.72,0],[0.24,1,0]];verticalLabelPosition=bottom;sketch=0;html=1;verticalAlign=top;aspect=fixed;align=center;pointerEvents=1;shape=mxgraph.cisco19.key;fillColor=#008a00;strokeColor=#005700;fontColor=#ffffff;" vertex="1" parent="1">
          <mxGeometry x="367.03" y="310" width="50" height="22.5" as="geometry" />
        </mxCell>
        <mxCell id="I2QJD84xTv0Rr7P3eNoM-25" value="" style="endArrow=classic;html=1;rounded=0;exitX=0.24;exitY=0;exitDx=0;exitDy=0;exitPerimeter=0;entryX=0;entryY=0.75;entryDx=0;entryDy=0;" edge="1" parent="1" source="I2QJD84xTv0Rr7P3eNoM-24" target="I2QJD84xTv0Rr7P3eNoM-14">
          <mxGeometry width="50" height="50" relative="1" as="geometry">
            <mxPoint x="340" y="310" as="sourcePoint" />
            <mxPoint x="390" y="260" as="targetPoint" />
          </mxGeometry>
        </mxCell>
        <mxCell id="I2QJD84xTv0Rr7P3eNoM-27" value="" style="rounded=1;whiteSpace=wrap;html=1;" vertex="1" parent="1">
          <mxGeometry x="30" y="430" width="420" height="270" as="geometry" />
        </mxCell>
        <mxCell id="I2QJD84xTv0Rr7P3eNoM-28" value="" style="rounded=1;whiteSpace=wrap;html=1;" vertex="1" parent="1">
          <mxGeometry x="40" y="440" width="160" height="250" as="geometry" />
        </mxCell>
        <mxCell id="I2QJD84xTv0Rr7P3eNoM-29" value="Data" style="rounded=1;whiteSpace=wrap;html=1;fillColor=#dae8fc;strokeColor=#6c8ebf;" vertex="1" parent="1">
          <mxGeometry x="90" y="455.4" width="60" height="40" as="geometry" />
        </mxCell>
        <mxCell id="I2QJD84xTv0Rr7P3eNoM-30" value="Encrypted&lt;div&gt;Data&lt;/div&gt;" style="rounded=1;whiteSpace=wrap;html=1;" vertex="1" parent="1">
          <mxGeometry x="60" y="615.4" width="120" height="60" as="geometry" />
        </mxCell>
        <mxCell id="I2QJD84xTv0Rr7P3eNoM-31" value="" style="html=1;verticalLabelPosition=bottom;align=center;labelBackgroundColor=#ffffff;verticalAlign=top;strokeWidth=2;strokeColor=#0080F0;shadow=0;dashed=0;shape=mxgraph.ios7.icons.locked;" vertex="1" parent="1">
          <mxGeometry x="63.03" y="630.4" width="24" height="30" as="geometry" />
        </mxCell>
        <mxCell id="I2QJD84xTv0Rr7P3eNoM-32" value="" style="rounded=1;whiteSpace=wrap;html=1;" vertex="1" parent="1">
          <mxGeometry x="277.03" y="440" width="160" height="250" as="geometry" />
        </mxCell>
        <mxCell id="I2QJD84xTv0Rr7P3eNoM-33" value="Data" style="rounded=1;whiteSpace=wrap;html=1;fillColor=#dae8fc;strokeColor=#6c8ebf;" vertex="1" parent="1">
          <mxGeometry x="327.03" y="455.4" width="60" height="40" as="geometry" />
        </mxCell>
        <mxCell id="I2QJD84xTv0Rr7P3eNoM-34" value="Encrypted&lt;div&gt;Data&lt;/div&gt;" style="rounded=1;whiteSpace=wrap;html=1;" vertex="1" parent="1">
          <mxGeometry x="297.03" y="615.4" width="120" height="60" as="geometry" />
        </mxCell>
        <mxCell id="I2QJD84xTv0Rr7P3eNoM-35" value="" style="html=1;verticalLabelPosition=bottom;align=center;labelBackgroundColor=#ffffff;verticalAlign=top;strokeWidth=2;strokeColor=#0080F0;shadow=0;dashed=0;shape=mxgraph.ios7.icons.locked;" vertex="1" parent="1">
          <mxGeometry x="303.03" y="630.4" width="24" height="30" as="geometry" />
        </mxCell>
        <mxCell id="I2QJD84xTv0Rr7P3eNoM-36" value="" style="endArrow=classic;html=1;rounded=0;exitX=1;exitY=0.5;exitDx=0;exitDy=0;entryX=0;entryY=0.5;entryDx=0;entryDy=0;" edge="1" parent="1" source="I2QJD84xTv0Rr7P3eNoM-30" target="I2QJD84xTv0Rr7P3eNoM-34">
          <mxGeometry width="50" height="50" relative="1" as="geometry">
            <mxPoint x="230" y="615.4" as="sourcePoint" />
            <mxPoint x="280" y="565.4" as="targetPoint" />
          </mxGeometry>
        </mxCell>
        <mxCell id="I2QJD84xTv0Rr7P3eNoM-37" value="" style="edgeStyle=orthogonalEdgeStyle;rounded=0;orthogonalLoop=1;jettySize=auto;html=1;" edge="1" parent="1" source="I2QJD84xTv0Rr7P3eNoM-38">
          <mxGeometry relative="1" as="geometry">
            <mxPoint x="120" y="615.4" as="targetPoint" />
          </mxGeometry>
        </mxCell>
        <mxCell id="I2QJD84xTv0Rr7P3eNoM-38" value="Encryption" style="triangle;whiteSpace=wrap;html=1;direction=south;verticalAlign=top;fillColor=#d5e8d4;strokeColor=#82b366;" vertex="1" parent="1">
          <mxGeometry x="77.5" y="535" width="85" height="60" as="geometry" />
        </mxCell>
        <mxCell id="I2QJD84xTv0Rr7P3eNoM-39" value="" style="endArrow=classic;html=1;rounded=0;exitX=0.5;exitY=1;exitDx=0;exitDy=0;entryX=0;entryY=0.5;entryDx=0;entryDy=0;" edge="1" parent="1" source="I2QJD84xTv0Rr7P3eNoM-29" target="I2QJD84xTv0Rr7P3eNoM-38">
          <mxGeometry width="50" height="50" relative="1" as="geometry">
            <mxPoint x="240" y="615.4" as="sourcePoint" />
            <mxPoint x="290" y="565.4" as="targetPoint" />
          </mxGeometry>
        </mxCell>
        <mxCell id="I2QJD84xTv0Rr7P3eNoM-40" value="" style="edgeStyle=orthogonalEdgeStyle;rounded=0;orthogonalLoop=1;jettySize=auto;html=1;" edge="1" parent="1" source="I2QJD84xTv0Rr7P3eNoM-41" target="I2QJD84xTv0Rr7P3eNoM-33">
          <mxGeometry relative="1" as="geometry" />
        </mxCell>
        <mxCell id="I2QJD84xTv0Rr7P3eNoM-41" value="Decryption" style="triangle;whiteSpace=wrap;html=1;direction=north;verticalAlign=bottom;fillColor=#d5e8d4;strokeColor=#82b366;" vertex="1" parent="1">
          <mxGeometry x="314.53" y="515.4" width="85" height="60" as="geometry" />
        </mxCell>
        <mxCell id="I2QJD84xTv0Rr7P3eNoM-42" value="" style="endArrow=classic;html=1;rounded=0;exitX=0.5;exitY=0;exitDx=0;exitDy=0;entryX=0;entryY=0.5;entryDx=0;entryDy=0;" edge="1" parent="1" source="I2QJD84xTv0Rr7P3eNoM-34" target="I2QJD84xTv0Rr7P3eNoM-41">
          <mxGeometry width="50" height="50" relative="1" as="geometry">
            <mxPoint x="240" y="615.4" as="sourcePoint" />
            <mxPoint x="290" y="565.4" as="targetPoint" />
          </mxGeometry>
        </mxCell>
        <mxCell id="I2QJD84xTv0Rr7P3eNoM-43" value="" style="points=[[0,0.5,0],[0.24,0,0],[0.5,0.28,0],[0.995,0.475,0],[0.5,0.72,0],[0.24,1,0]];verticalLabelPosition=bottom;sketch=0;html=1;verticalAlign=top;aspect=fixed;align=center;pointerEvents=1;shape=mxgraph.cisco19.key;fillColor=#008a00;strokeColor=#005700;fontColor=#ffffff;" vertex="1" parent="1">
          <mxGeometry x="140" y="500" width="50" height="22.5" as="geometry" />
        </mxCell>
        <mxCell id="I2QJD84xTv0Rr7P3eNoM-44" value="" style="endArrow=classic;html=1;rounded=0;exitX=0.24;exitY=1;exitDx=0;exitDy=0;exitPerimeter=0;entryX=-0.001;entryY=0.124;entryDx=0;entryDy=0;entryPerimeter=0;" edge="1" parent="1" source="I2QJD84xTv0Rr7P3eNoM-43" target="I2QJD84xTv0Rr7P3eNoM-38">
          <mxGeometry width="50" height="50" relative="1" as="geometry">
            <mxPoint x="230" y="530" as="sourcePoint" />
            <mxPoint x="280" y="480" as="targetPoint" />
          </mxGeometry>
        </mxCell>
        <mxCell id="I2QJD84xTv0Rr7P3eNoM-45" value="" style="points=[[0,0.5,0],[0.24,0,0],[0.5,0.28,0],[0.995,0.475,0],[0.5,0.72,0],[0.24,1,0]];verticalLabelPosition=bottom;sketch=0;html=1;verticalAlign=top;aspect=fixed;align=center;pointerEvents=1;shape=mxgraph.cisco19.key;fillColor=#e51400;strokeColor=#B20000;fontColor=#ffffff;" vertex="1" parent="1">
          <mxGeometry x="367.03" y="590" width="50" height="22.5" as="geometry" />
        </mxCell>
        <mxCell id="I2QJD84xTv0Rr7P3eNoM-46" value="" style="endArrow=classic;html=1;rounded=0;exitX=0.24;exitY=0;exitDx=0;exitDy=0;exitPerimeter=0;entryX=0;entryY=0.75;entryDx=0;entryDy=0;" edge="1" parent="1" source="I2QJD84xTv0Rr7P3eNoM-45" target="I2QJD84xTv0Rr7P3eNoM-41">
          <mxGeometry width="50" height="50" relative="1" as="geometry">
            <mxPoint x="340" y="590" as="sourcePoint" />
            <mxPoint x="390" y="540" as="targetPoint" />
          </mxGeometry>
        </mxCell>
      </root>
    </mxGraphModel>
  </diagram>
  <diagram id="3yLE8qI4oJNkjMeFqdUm" name="Page-6">
    <mxGraphModel dx="1080" dy="693" grid="1" gridSize="10" guides="1" tooltips="1" connect="1" arrows="1" fold="1" page="1" pageScale="1" pageWidth="827" pageHeight="1169" math="0" shadow="0">
      <root>
        <mxCell id="0" />
        <mxCell id="1" parent="0" />
        <mxCell id="huPaL51YXubWhVvO1DQg-11" value="" style="rounded=1;whiteSpace=wrap;html=1;" vertex="1" parent="1">
          <mxGeometry x="340" y="220" width="240" height="300" as="geometry" />
        </mxCell>
        <mxCell id="iFq5OGu1J3ExPYIVT-9i-8" value="" style="rounded=1;whiteSpace=wrap;html=1;" vertex="1" parent="1">
          <mxGeometry x="10" y="155.4" width="240" height="364.6" as="geometry" />
        </mxCell>
        <mxCell id="iFq5OGu1J3ExPYIVT-9i-6" value="" style="rounded=1;whiteSpace=wrap;html=1;" vertex="1" parent="1">
          <mxGeometry x="30" y="440" width="200" height="60" as="geometry" />
        </mxCell>
        <mxCell id="8k3rNsvICp_QYFuU5MYC-2" value="" style="rounded=1;whiteSpace=wrap;html=1;" vertex="1" parent="1">
          <mxGeometry x="260" y="141.65" width="150" height="73.75" as="geometry" />
        </mxCell>
        <mxCell id="8k3rNsvICp_QYFuU5MYC-3" value="" style="points=[[0,0.5,0],[0.24,0,0],[0.5,0.28,0],[0.995,0.475,0],[0.5,0.72,0],[0.24,1,0]];verticalLabelPosition=bottom;sketch=0;html=1;verticalAlign=top;aspect=fixed;align=center;pointerEvents=1;shape=mxgraph.cisco19.key;fillColor=#e51400;strokeColor=#B20000;fontColor=#ffffff;" vertex="1" parent="1">
          <mxGeometry x="270" y="145.4" width="50" height="22.5" as="geometry" />
        </mxCell>
        <mxCell id="8k3rNsvICp_QYFuU5MYC-4" value="" style="points=[[0,0.5,0],[0.24,0,0],[0.5,0.28,0],[0.995,0.475,0],[0.5,0.72,0],[0.24,1,0]];verticalLabelPosition=bottom;sketch=0;html=1;verticalAlign=top;aspect=fixed;align=center;pointerEvents=1;shape=mxgraph.cisco19.key;fillColor=#008a00;strokeColor=#005700;fontColor=#ffffff;" vertex="1" parent="1">
          <mxGeometry x="270" y="185.4" width="50" height="22.5" as="geometry" />
        </mxCell>
        <mxCell id="8k3rNsvICp_QYFuU5MYC-5" value="Private Key" style="text;html=1;align=center;verticalAlign=middle;whiteSpace=wrap;rounded=0;fontColor=#FF0000;" vertex="1" parent="1">
          <mxGeometry x="330" y="141.65" width="80" height="30" as="geometry" />
        </mxCell>
        <mxCell id="8k3rNsvICp_QYFuU5MYC-6" value="Public Key" style="text;html=1;align=center;verticalAlign=middle;whiteSpace=wrap;rounded=0;fontColor=#008a00;" vertex="1" parent="1">
          <mxGeometry x="330" y="181.65" width="80" height="30" as="geometry" />
        </mxCell>
        <mxCell id="8k3rNsvICp_QYFuU5MYC-8" value="Data" style="rounded=1;whiteSpace=wrap;html=1;fillColor=#dae8fc;strokeColor=#6c8ebf;" vertex="1" parent="1">
          <mxGeometry x="130" y="175.4" width="60" height="40" as="geometry" />
        </mxCell>
        <mxCell id="8k3rNsvICp_QYFuU5MYC-9" value="Encrypted&lt;div&gt;Hash&lt;/div&gt;" style="rounded=1;whiteSpace=wrap;html=1;" vertex="1" parent="1">
          <mxGeometry x="100" y="450" width="120" height="40" as="geometry" />
        </mxCell>
        <mxCell id="8k3rNsvICp_QYFuU5MYC-10" value="" style="html=1;verticalLabelPosition=bottom;align=center;labelBackgroundColor=#ffffff;verticalAlign=top;strokeWidth=2;strokeColor=#0080F0;shadow=0;dashed=0;shape=mxgraph.ios7.icons.locked;" vertex="1" parent="1">
          <mxGeometry x="103.03" y="455" width="24" height="30" as="geometry" />
        </mxCell>
        <mxCell id="8k3rNsvICp_QYFuU5MYC-16" value="" style="edgeStyle=orthogonalEdgeStyle;rounded=0;orthogonalLoop=1;jettySize=auto;html=1;entryX=0;entryY=0.5;entryDx=0;entryDy=0;" edge="1" parent="1" source="8k3rNsvICp_QYFuU5MYC-17" target="iFq5OGu1J3ExPYIVT-9i-1">
          <mxGeometry relative="1" as="geometry">
            <mxPoint x="160" y="335.4" as="targetPoint" />
            <Array as="points" />
          </mxGeometry>
        </mxCell>
        <mxCell id="8k3rNsvICp_QYFuU5MYC-17" value="Hash" style="triangle;whiteSpace=wrap;html=1;direction=south;verticalAlign=top;fillColor=#e1d5e7;strokeColor=#9673a6;" vertex="1" parent="1">
          <mxGeometry x="117.5" y="255" width="85" height="60" as="geometry" />
        </mxCell>
        <mxCell id="8k3rNsvICp_QYFuU5MYC-18" value="" style="endArrow=classic;html=1;rounded=0;exitX=0.5;exitY=1;exitDx=0;exitDy=0;entryX=0;entryY=0.5;entryDx=0;entryDy=0;" edge="1" parent="1" source="8k3rNsvICp_QYFuU5MYC-8" target="8k3rNsvICp_QYFuU5MYC-17">
          <mxGeometry width="50" height="50" relative="1" as="geometry">
            <mxPoint x="280" y="335.4" as="sourcePoint" />
            <mxPoint x="330" y="285.4" as="targetPoint" />
          </mxGeometry>
        </mxCell>
        <mxCell id="iFq5OGu1J3ExPYIVT-9i-1" value="Encryption" style="triangle;whiteSpace=wrap;html=1;direction=south;verticalAlign=top;fillColor=#d5e8d4;strokeColor=#82b366;" vertex="1" parent="1">
          <mxGeometry x="117.5" y="350" width="85" height="60" as="geometry" />
        </mxCell>
        <mxCell id="iFq5OGu1J3ExPYIVT-9i-2" value="" style="points=[[0,0.5,0],[0.24,0,0],[0.5,0.28,0],[0.995,0.475,0],[0.5,0.72,0],[0.24,1,0]];verticalLabelPosition=bottom;sketch=0;html=1;verticalAlign=top;aspect=fixed;align=center;pointerEvents=1;shape=mxgraph.cisco19.key;fillColor=#e51400;strokeColor=#B20000;fontColor=#ffffff;" vertex="1" parent="1">
          <mxGeometry x="165" y="310" width="50" height="22.5" as="geometry" />
        </mxCell>
        <mxCell id="iFq5OGu1J3ExPYIVT-9i-4" value="" style="endArrow=classic;html=1;rounded=0;exitX=0.5;exitY=0.72;exitDx=0;exitDy=0;exitPerimeter=0;entryX=0;entryY=0.147;entryDx=0;entryDy=0;entryPerimeter=0;" edge="1" parent="1" source="iFq5OGu1J3ExPYIVT-9i-2" target="iFq5OGu1J3ExPYIVT-9i-1">
          <mxGeometry width="50" height="50" relative="1" as="geometry">
            <mxPoint x="160" y="370" as="sourcePoint" />
            <mxPoint x="210" y="320" as="targetPoint" />
          </mxGeometry>
        </mxCell>
        <mxCell id="iFq5OGu1J3ExPYIVT-9i-5" value="Data" style="rounded=1;whiteSpace=wrap;html=1;fillColor=#dae8fc;strokeColor=#6c8ebf;" vertex="1" parent="1">
          <mxGeometry x="40" y="450" width="60" height="40" as="geometry" />
        </mxCell>
        <mxCell id="iFq5OGu1J3ExPYIVT-9i-7" value="" style="endArrow=classic;html=1;rounded=0;exitX=1;exitY=0.5;exitDx=0;exitDy=0;entryX=0.5;entryY=0;entryDx=0;entryDy=0;" edge="1" parent="1" source="iFq5OGu1J3ExPYIVT-9i-1" target="8k3rNsvICp_QYFuU5MYC-9">
          <mxGeometry width="50" height="50" relative="1" as="geometry">
            <mxPoint x="160" y="390" as="sourcePoint" />
            <mxPoint x="210" y="340" as="targetPoint" />
          </mxGeometry>
        </mxCell>
        <mxCell id="iFq5OGu1J3ExPYIVT-9i-9" value="Owner" style="text;html=1;align=center;verticalAlign=middle;whiteSpace=wrap;rounded=0;" vertex="1" parent="1">
          <mxGeometry x="30" y="170" width="60" height="30" as="geometry" />
        </mxCell>
        <mxCell id="iFq5OGu1J3ExPYIVT-9i-15" value="" style="rounded=1;whiteSpace=wrap;html=1;" vertex="1" parent="1">
          <mxGeometry x="360" y="440" width="200" height="60" as="geometry" />
        </mxCell>
        <mxCell id="iFq5OGu1J3ExPYIVT-9i-16" value="Encrypted&lt;div&gt;Hash&lt;/div&gt;" style="rounded=1;whiteSpace=wrap;html=1;" vertex="1" parent="1">
          <mxGeometry x="430" y="450" width="120" height="40" as="geometry" />
        </mxCell>
        <mxCell id="iFq5OGu1J3ExPYIVT-9i-17" value="" style="html=1;verticalLabelPosition=bottom;align=center;labelBackgroundColor=#ffffff;verticalAlign=top;strokeWidth=2;strokeColor=#0080F0;shadow=0;dashed=0;shape=mxgraph.ios7.icons.locked;" vertex="1" parent="1">
          <mxGeometry x="433.03" y="455" width="24" height="30" as="geometry" />
        </mxCell>
        <mxCell id="iFq5OGu1J3ExPYIVT-9i-18" value="Data" style="rounded=1;whiteSpace=wrap;html=1;fillColor=#dae8fc;strokeColor=#6c8ebf;" vertex="1" parent="1">
          <mxGeometry x="370" y="450" width="60" height="40" as="geometry" />
        </mxCell>
        <mxCell id="iFq5OGu1J3ExPYIVT-9i-19" value="" style="endArrow=classic;html=1;rounded=0;exitX=1;exitY=0.5;exitDx=0;exitDy=0;entryX=0;entryY=0.5;entryDx=0;entryDy=0;" edge="1" parent="1" source="iFq5OGu1J3ExPYIVT-9i-6" target="iFq5OGu1J3ExPYIVT-9i-15">
          <mxGeometry width="50" height="50" relative="1" as="geometry">
            <mxPoint x="380" y="330" as="sourcePoint" />
            <mxPoint x="430" y="280" as="targetPoint" />
          </mxGeometry>
        </mxCell>
        <mxCell id="iFq5OGu1J3ExPYIVT-9i-20" value="Hash" style="triangle;whiteSpace=wrap;html=1;direction=north;verticalAlign=bottom;fillColor=#e1d5e7;strokeColor=#9673a6;" vertex="1" parent="1">
          <mxGeometry x="357.5" y="340" width="85" height="60" as="geometry" />
        </mxCell>
        <mxCell id="iFq5OGu1J3ExPYIVT-9i-21" value="" style="endArrow=classic;html=1;rounded=0;exitX=0.5;exitY=0;exitDx=0;exitDy=0;entryX=0;entryY=0.5;entryDx=0;entryDy=0;" edge="1" parent="1" source="iFq5OGu1J3ExPYIVT-9i-18" target="iFq5OGu1J3ExPYIVT-9i-20">
          <mxGeometry width="50" height="50" relative="1" as="geometry">
            <mxPoint x="390" y="380" as="sourcePoint" />
            <mxPoint x="440" y="330" as="targetPoint" />
          </mxGeometry>
        </mxCell>
        <mxCell id="iFq5OGu1J3ExPYIVT-9i-23" value="Hash" style="rounded=1;whiteSpace=wrap;html=1;fillColor=#f5f5f5;fontColor=#333333;strokeColor=#666666;" vertex="1" parent="1">
          <mxGeometry x="373.52" y="255" width="52.97" height="50" as="geometry" />
        </mxCell>
        <mxCell id="huPaL51YXubWhVvO1DQg-2" value="" style="endArrow=classic;html=1;rounded=0;exitX=1;exitY=0.5;exitDx=0;exitDy=0;entryX=0.5;entryY=1;entryDx=0;entryDy=0;" edge="1" parent="1" source="iFq5OGu1J3ExPYIVT-9i-20" target="iFq5OGu1J3ExPYIVT-9i-23">
          <mxGeometry width="50" height="50" relative="1" as="geometry">
            <mxPoint x="400" y="390" as="sourcePoint" />
            <mxPoint x="450" y="340" as="targetPoint" />
          </mxGeometry>
        </mxCell>
        <mxCell id="huPaL51YXubWhVvO1DQg-3" value="" style="endArrow=classic;html=1;rounded=0;exitX=0.5;exitY=0;exitDx=0;exitDy=0;" edge="1" parent="1" source="iFq5OGu1J3ExPYIVT-9i-16">
          <mxGeometry width="50" height="50" relative="1" as="geometry">
            <mxPoint x="400" y="390" as="sourcePoint" />
            <mxPoint x="490" y="400" as="targetPoint" />
          </mxGeometry>
        </mxCell>
        <mxCell id="huPaL51YXubWhVvO1DQg-4" value="Decryption" style="triangle;whiteSpace=wrap;html=1;direction=north;verticalAlign=bottom;fillColor=#d5e8d4;strokeColor=#82b366;" vertex="1" parent="1">
          <mxGeometry x="447.5" y="340" width="85" height="60" as="geometry" />
        </mxCell>
        <mxCell id="huPaL51YXubWhVvO1DQg-5" value="" style="points=[[0,0.5,0],[0.24,0,0],[0.5,0.28,0],[0.995,0.475,0],[0.5,0.72,0],[0.24,1,0]];verticalLabelPosition=bottom;sketch=0;html=1;verticalAlign=top;aspect=fixed;align=center;pointerEvents=1;shape=mxgraph.cisco19.key;fillColor=#008a00;strokeColor=#005700;fontColor=#ffffff;" vertex="1" parent="1">
          <mxGeometry x="500" y="410" width="50" height="22.5" as="geometry" />
        </mxCell>
        <mxCell id="huPaL51YXubWhVvO1DQg-6" value="" style="endArrow=classic;html=1;rounded=0;exitX=0.268;exitY=-0.002;exitDx=0;exitDy=0;exitPerimeter=0;entryX=0.011;entryY=0.773;entryDx=0;entryDy=0;entryPerimeter=0;" edge="1" parent="1" source="huPaL51YXubWhVvO1DQg-5" target="huPaL51YXubWhVvO1DQg-4">
          <mxGeometry width="50" height="50" relative="1" as="geometry">
            <mxPoint x="460" y="430" as="sourcePoint" />
            <mxPoint x="510" y="380" as="targetPoint" />
          </mxGeometry>
        </mxCell>
        <mxCell id="huPaL51YXubWhVvO1DQg-7" value="&lt;font style=&quot;font-size: 11px;&quot;&gt;Decrypted&lt;/font&gt;&lt;div style=&quot;font-size: 11px;&quot;&gt;&lt;font style=&quot;font-size: 11px;&quot;&gt;Hash&lt;/font&gt;&lt;/div&gt;" style="rounded=1;whiteSpace=wrap;html=1;fillColor=#f5f5f5;fontColor=#333333;strokeColor=#666666;" vertex="1" parent="1">
          <mxGeometry x="463.52" y="255" width="52.97" height="50" as="geometry" />
        </mxCell>
        <mxCell id="huPaL51YXubWhVvO1DQg-8" value="" style="endArrow=classic;html=1;rounded=0;exitX=1;exitY=0.5;exitDx=0;exitDy=0;entryX=0.5;entryY=1;entryDx=0;entryDy=0;" edge="1" parent="1" source="huPaL51YXubWhVvO1DQg-4" target="huPaL51YXubWhVvO1DQg-7">
          <mxGeometry width="50" height="50" relative="1" as="geometry">
            <mxPoint x="430" y="350" as="sourcePoint" />
            <mxPoint x="480" y="300" as="targetPoint" />
          </mxGeometry>
        </mxCell>
        <mxCell id="huPaL51YXubWhVvO1DQg-9" value="" style="endArrow=classic;startArrow=classic;html=1;rounded=0;exitX=0.5;exitY=0;exitDx=0;exitDy=0;entryX=0.5;entryY=0;entryDx=0;entryDy=0;" edge="1" parent="1" source="iFq5OGu1J3ExPYIVT-9i-23" target="huPaL51YXubWhVvO1DQg-7">
          <mxGeometry width="50" height="50" relative="1" as="geometry">
            <mxPoint x="430" y="300" as="sourcePoint" />
            <mxPoint x="480" y="250" as="targetPoint" />
            <Array as="points">
              <mxPoint x="400" y="240" />
              <mxPoint x="490" y="240" />
            </Array>
          </mxGeometry>
        </mxCell>
        <mxCell id="huPaL51YXubWhVvO1DQg-10" value="Compare" style="edgeLabel;html=1;align=center;verticalAlign=middle;resizable=0;points=[];" vertex="1" connectable="0" parent="huPaL51YXubWhVvO1DQg-9">
          <mxGeometry x="-0.0033" relative="1" as="geometry">
            <mxPoint as="offset" />
          </mxGeometry>
        </mxCell>
      </root>
    </mxGraphModel>
  </diagram>
</mxfile>
